<svg width="48" height="48" viewBox="0 0 48 48" fill="none" xmlns="http://www.w3.org/2000/svg">
<rect width="48" height="48" rx="8" fill="#5296FB" fill-opacity="0.15"/>
<path opacity="0.4" d="M28.49 34H19.51C16 34 15.24 31.99 15.53 29.53L16.43 22.03C16.66 20.09 17 18.5 20.4 18.5H27.6C31 18.5 31.34 20.09 31.57 22.03L32.32 28.28L32.47 29.53C32.48 29.61 32.49 29.69 32.5 29.77C32.71 32.12 31.89 34 28.49 34Z" fill="#5296FB"/>
<path d="M28 20.75C27.59 20.75 27.25 20.41 27.25 20V16.5C27.25 15.42 26.58 14.75 25.5 14.75H22.5C21.42 14.75 20.75 15.42 20.75 16.5V20C20.75 20.41 20.41 20.75 20 20.75C19.59 20.75 19.25 20.41 19.25 20V16.5C19.25 14.59 20.59 13.25 22.5 13.25H25.5C27.41 13.25 28.75 14.59 28.75 16.5V20C28.75 20.41 28.41 20.75 28 20.75Z" fill="#5296FB"/>
<path d="M32.5 29.7703C32.47 29.7803 32.44 29.7803 32.41 29.7803H20C19.59 29.7803 19.25 29.4403 19.25 29.0303C19.25 28.6103 19.59 28.2803 20 28.2803H32.32L32.47 29.5303C32.48 29.6103 32.49 29.6903 32.5 29.7703Z" fill="#5296FB"/>
</svg>
