<svg width="48" height="48" viewBox="0 0 48 48" fill="none" xmlns="http://www.w3.org/2000/svg">
<rect width="48" height="48" rx="8" fill="#5296FB" fill-opacity="0.15"/>
<path opacity="0.4" d="M33.0406 19.19L24.0006 24.42L14.9606 19.19C15.3606 18.45 15.9406 17.8 16.5906 17.44L21.9306 14.48C23.0706 13.84 24.9306 13.84 26.0706 14.48L31.4106 17.44C32.0606 17.8 32.6406 18.45 33.0406 19.19Z" fill="#5296FB"/>
<path opacity="0.6" d="M24.0006 24.4204V34.0004C23.2506 34.0004 22.5006 33.8404 21.9306 33.5204L16.5906 30.5604C15.3806 29.8904 14.3906 28.2104 14.3906 26.8304V21.1704C14.3906 20.5304 14.6106 19.8304 14.9606 19.1904L24.0006 24.4204Z" fill="#5296FB"/>
<path d="M33.6106 21.1704V26.8304C33.6106 28.2104 32.6206 29.8904 31.4106 30.5604L26.0706 33.5204C25.5006 33.8404 24.7506 34.0004 24.0006 34.0004V24.4204L33.0406 19.1904C33.3906 19.8304 33.6106 20.5304 33.6106 21.1704Z" fill="#5296FB"/>
</svg>
