<svg width="48" height="48" viewBox="0 0 48 48" fill="none" xmlns="http://www.w3.org/2000/svg">
<rect width="48" height="48" rx="8" fill="#5296FB" fill-opacity="0.15"/>
<path opacity="0.4" d="M30.67 14H28.77C26.59 14 25.44 15.15 25.44 17.33V19.23C25.44 21.41 26.59 22.56 28.77 22.56H30.67C32.85 22.56 34 21.41 34 19.23V17.33C34 15.15 32.85 14 30.67 14Z" fill="#5296FB"/>
<path opacity="0.4" d="M19.24 25.4297H17.34C15.15 25.4297 14 26.5797 14 28.7597V30.6597C14 32.8497 15.15 33.9997 17.33 33.9997H19.23C21.41 33.9997 22.56 32.8497 22.56 30.6697V28.7697C22.57 26.5797 21.42 25.4297 19.24 25.4297Z" fill="#5296FB"/>
<path d="M18.29 22.58C20.6593 22.58 22.58 20.6593 22.58 18.29C22.58 15.9207 20.6593 14 18.29 14C15.9207 14 14 15.9207 14 18.29C14 20.6593 15.9207 22.58 18.29 22.58Z" fill="#5296FB"/>
<path d="M29.71 33.9999C32.0793 33.9999 34 32.0792 34 29.7099C34 27.3406 32.0793 25.4199 29.71 25.4199C27.3407 25.4199 25.42 27.3406 25.42 29.7099C25.42 32.0792 27.3407 33.9999 29.71 33.9999Z" fill="#5296FB"/>
</svg>
